<svg version="1.0" xmlns="http://www.w3.org/2000/svg"
 width="1834.000000pt" height="1834.000000pt" viewBox="0 0 1834.000000 1834.000000"
 preserveAspectRatio="xMidYMid meet">
<g transform="translate(0.000000,1834.000000) scale(0.100000,-0.100000)"
fill="#000000" stroke="none">
<path d="M11350 18069 c-122 -17 -376 -137 -573 -270 -48 -33 -93 -57 -99 -53
-6 4 -8 3 -5 -3 4 -6 -8 -21 -25 -34 -33 -25 -80 -64 -182 -153 -33 -28 -63
-50 -68 -48 -5 1 -7 -1 -4 -6 7 -12 -58 -74 -69 -65 -4 5 -5 3 -2 -3 7 -12
-25 -47 -36 -39 -4 3 -5 2 -2 -2 7 -9 -16 -34 -26 -27 -5 3 -8 0 -7 -8 2 -7
-3 -12 -10 -10 -8 1 -11 -2 -8 -7 7 -11 -73 -107 -87 -103 -4 1 -6 -2 -3 -7 4
-5 2 -12 -4 -16 -15 -9 -168 -208 -239 -312 -35 -51 -68 -90 -72 -87 -5 3 -7
-1 -4 -8 3 -7 -15 -44 -40 -81 -24 -37 -59 -95 -78 -127 -18 -33 -37 -58 -40
-55 -4 3 -5 3 -3 0 2 -3 -51 -115 -118 -248 -128 -254 -209 -448 -331 -793
l-73 -208 -38 -15 c-88 -36 -254 -161 -355 -267 -30 -33 -82 -95 -114 -139
-32 -44 -65 -86 -73 -92 -9 -7 -12 -13 -7 -13 5 0 0 -7 -11 -16 -10 -8 -13
-13 -6 -9 7 4 -2 -17 -21 -47 -19 -29 -44 -73 -57 -97 l-22 -44 -98 98 c-55
54 -96 103 -93 108 4 6 1 7 -6 2 -8 -4 -25 4 -44 23 -54 50 -189 147 -252 179
-91 47 -206 76 -280 70 -67 -5 -146 -36 -183 -70 -13 -12 -27 -21 -30 -19 -4
1 -7 -1 -7 -5 0 -5 -10 -21 -21 -38 -51 -72 -121 -245 -139 -345 -13 -71 -13
-72 -41 -54 -13 9 -21 21 -17 28 3 6 3 8 -2 4 -4 -4 -42 16 -84 44 -247 168
-581 270 -775 238 -170 -27 -260 -114 -242 -234 11 -72 122 -280 207 -388 17
-21 27 -43 23 -49 -4 -7 -3 -9 4 -6 14 9 64 -51 55 -66 -3 -7 -2 -9 2 -4 8 7
65 -40 65 -53 0 -4 -73 -10 -162 -13 -223 -9 -650 -65 -863 -113 -100 -23
-339 -93 -415 -121 -201 -76 -353 -182 -400 -278 -26 -54 -26 -133 0 -184 10
-21 16 -42 12 -46 -4 -5 -2 -5 4 -2 6 4 19 -2 29 -13 29 -32 106 -77 175 -104
76 -28 258 -69 381 -86 l85 -12 -141 -73 c-240 -125 -391 -221 -613 -394 -68
-53 -128 -95 -133 -93 -6 1 -8 -2 -5 -7 7 -10 -68 -73 -78 -66 -3 3 -4 2 -1
-2 8 -10 -267 -283 -278 -276 -6 4 -7 1 -2 -6 4 -8 -6 -27 -27 -49 -19 -21
-54 -62 -78 -92 -51 -64 -67 -81 -55 -61 5 10 4 12 -4 7 -6 -4 -9 -11 -6 -16
3 -4 -5 -21 -18 -37 -13 -15 -43 -56 -66 -90 -24 -35 -48 -60 -54 -56 -6 3 -7
1 -3 -5 4 -7 -6 -31 -23 -55 -115 -168 -285 -492 -382 -727 -216 -527 -365
-1208 -410 -1880 -15 -222 -15 -835 0 -1045 54 -741 193 -1462 417 -2163 36
-111 62 -208 58 -215 -4 -6 -3 -9 1 -4 5 4 22 -28 37 -70 74 -199 165 -428
209 -529 27 -62 49 -115 49 -119 0 -11 283 -582 325 -655 20 -36 37 -72 38
-82 1 -9 4 -15 7 -13 3 2 28 -36 55 -83 147 -259 428 -688 578 -879 27 -35 50
-71 51 -80 2 -10 8 -18 14 -18 15 0 83 -91 74 -100 -4 -3 0 -5 8 -3 9 2 14 -4
14 -14 -1 -10 2 -16 6 -13 4 3 36 -30 71 -73 34 -42 80 -96 101 -119 25 -28
36 -48 32 -60 -4 -13 -3 -14 3 -5 7 9 26 -7 74 -60 35 -40 139 -150 231 -244
93 -94 166 -174 163 -177 -3 -4 -2 -5 1 -2 10 7 160 -136 156 -149 -2 -6 0 -8
3 -4 9 9 146 -112 140 -122 -3 -4 3 -7 13 -6 10 0 16 -5 14 -14 -2 -8 0 -12 3
-8 9 9 231 -171 228 -183 -2 -5 1 -8 6 -6 16 4 221 -155 214 -166 -3 -6 -1 -7
6 -3 7 4 26 -3 44 -17 86 -65 287 -199 414 -277 78 -48 140 -90 138 -94 -3 -3
-2 -4 2 -1 6 4 38 -12 153 -78 19 -11 101 -55 183 -97 81 -42 144 -80 140 -85
-5 -4 -3 -5 3 -2 6 4 76 -23 154 -59 286 -130 594 -247 865 -328 151 -45 192
-51 575 -91 238 -25 246 -24 597 81 178 53 388 126 568 198 50 19 97 37 105
38 8 2 17 5 20 8 3 3 50 25 105 50 326 145 864 438 1023 557 17 13 37 21 42
18 6 -3 13 0 16 8 3 8 37 36 77 63 122 83 388 284 478 361 48 41 93 72 100 71
8 -2 13 2 12 9 -3 14 88 89 102 85 5 -2 7 -1 3 3 -3 3 24 34 60 67 37 33 152
144 257 247 104 102 194 185 200 183 5 -2 7 0 3 3 -10 10 132 166 144 159 4
-3 7 0 6 8 -2 7 3 12 10 10 8 -1 11 2 7 8 -4 6 22 43 57 83 248 278 577 727
793 1080 27 43 53 84 59 91 6 6 12 17 14 24 2 13 81 142 92 152 3 3 6 11 8 18
1 8 23 50 48 94 114 200 313 613 422 873 380 909 603 1828 689 2835 22 258 25
925 5 1165 -70 853 -249 1554 -552 2155 -64 129 -150 280 -218 385 -24 38 -45
75 -46 82 -1 7 -6 16 -11 20 -4 4 -5 1 -1 -7 4 -8 1 -7 -6 4 -214 310 -531
644 -823 867 -136 103 -431 293 -508 327 -17 7 -25 17 -21 24 4 7 3 8 -4 4 -6
-4 -37 6 -69 23 l-58 29 80 6 c508 43 766 105 886 213 111 100 110 230 -3 345
-23 24 -41 47 -40 51 2 5 -1 6 -6 3 -4 -3 -21 4 -38 15 -117 79 -418 188 -669
243 -254 56 -678 108 -963 119 l-64 2 22 28 c12 15 27 24 33 20 7 -3 9 -3 5 2
-4 4 19 40 51 79 120 148 241 364 249 445 6 65 -2 93 -38 134 -16 19 -26 37
-22 41 4 4 2 6 -3 5 -6 -2 -24 4 -40 13 -57 30 -183 50 -270 43 -101 -9 -240
-44 -351 -89 -48 -20 -92 -33 -98 -29 -6 3 -8 2 -3 -2 4 -5 -24 -25 -61 -45
-37 -20 -99 -57 -136 -81 -38 -24 -73 -43 -78 -42 -4 2 -7 -2 -5 -8 1 -6 -8
-17 -19 -25 -21 -14 -22 -13 -43 78 -12 51 -37 131 -56 177 -18 47 -31 89 -28
94 3 6 1 7 -5 3 -6 -4 -17 5 -26 21 -23 45 -97 110 -150 134 -102 45 -228 32
-368 -37 -38 -18 -68 -30 -68 -26 0 4 -4 2 -8 -4 -4 -5 -43 -37 -87 -70 -83
-61 -160 -129 -281 -246 l-71 -69 -33 63 c-18 35 -49 88 -68 118 -19 30 -35
60 -35 67 0 7 -4 11 -8 10 -10 -3 -69 79 -69 96 0 20 65 150 120 240 75 122
186 272 200 269 6 -1 9 2 5 7 -7 12 84 127 98 123 4 -1 6 2 3 7 -8 12 18 33
29 23 5 -4 5 -1 1 6 -8 14 112 154 126 146 5 -3 7 0 6 8 -2 7 3 12 10 10 8 -1
11 2 7 8 -17 28 719 711 747 694 4 -3 7 0 6 8 -2 7 5 12 14 12 10 -1 15 2 13
7 -5 7 94 89 315 260 162 125 182 139 190 134 5 -3 12 0 16 6 5 8 2 10 -7 5
-22 -12 5 10 137 110 194 147 233 208 242 370 6 113 -5 159 -59 255 -23 41
-42 80 -42 87 0 6 -2 10 -5 8 -2 -3 -24 22 -48 54 -164 217 -394 329 -614 299z
m-6827 -6059 c8 -11 17 -17 20 -13 4 3 7 -1 7 -11 0 -9 4 -15 8 -12 11 7 11
-35 0 -66 -6 -16 -15 -28 -20 -28 -5 0 -7 -4 -4 -9 3 -5 -5 -17 -19 -27 -13
-10 -22 -21 -19 -26 3 -4 -3 -5 -12 -1 -11 4 -15 3 -10 -5 3 -6 -3 -16 -14
-22 -11 -6 -20 -15 -20 -21 0 -6 6 -7 12 -3 13 8 -53 -86 -84 -120 -10 -11
-18 -25 -18 -32 0 -7 -7 -17 -16 -22 -9 -5 -17 -13 -17 -18 -1 -5 -6 -8 -10
-6 -5 1 -7 -3 -4 -10 2 -7 -5 -26 -17 -43 -12 -16 -28 -45 -36 -63 -7 -19 -18
-39 -24 -46 -12 -13 -34 -52 -76 -133 -15 -29 -30 -50 -34 -45 -5 4 -7 0 -5
-8 3 -19 -45 -125 -66 -146 -8 -8 -15 -25 -15 -37 0 -13 -6 -31 -13 -42 -7
-11 -19 -39 -27 -63 -10 -30 -16 -39 -23 -30 -6 9 -7 8 -3 -4 5 -16 -4 -43
-39 -123 -7 -16 -16 -41 -20 -55 -4 -14 -22 -65 -40 -115 -18 -49 -43 -128
-56 -175 -13 -47 -28 -88 -33 -92 -6 -4 -8 -10 -4 -13 6 -6 4 -15 -37 -174
-14 -57 -31 -129 -36 -160 -33 -192 -41 -241 -59 -381 -10 -85 -24 -222 -30
-305 -12 -169 -11 -576 1 -735 8 -93 43 -403 54 -470 2 -14 7 -45 11 -70 3
-25 8 -54 10 -65 2 -11 9 -49 14 -85 6 -36 14 -78 19 -95 23 -78 34 -159 23
-163 -7 -2 -10 -7 -7 -12 7 -12 -22 -39 -51 -46 -33 -9 -74 3 -81 24 -3 9 -12
24 -19 32 -15 18 -68 266 -60 285 2 7 -1 30 -9 51 -15 44 -45 241 -45 295 0
19 7 44 15 55 24 31 19 81 -12 111 -21 22 -27 40 -34 102 -12 119 -11 198 4
213 46 45 48 95 6 133 l-32 28 7 216 c7 206 23 409 46 571 6 41 15 107 20 145
15 111 36 218 76 385 20 85 39 165 42 177 2 13 9 20 15 16 6 -4 8 0 4 10 -4
10 -2 30 4 45 6 15 13 38 15 52 7 36 35 121 48 145 6 11 11 25 11 30 1 22 39
114 46 110 4 -3 9 4 12 15 3 11 1 18 -3 15 -5 -3 -2 15 6 40 9 25 20 43 25 39
5 -3 7 1 4 8 -6 14 59 171 67 163 3 -3 5 2 5 10 0 8 7 29 16 47 8 18 34 71 56
118 22 47 51 102 65 123 14 21 26 44 26 51 0 7 10 23 23 36 12 14 20 26 18 28
-2 2 9 26 24 54 21 38 30 47 37 37 7 -11 8 -9 4 5 -4 12 3 31 18 51 14 18 23
35 20 38 -3 3 5 13 19 22 14 9 31 30 38 48 18 42 59 103 59 86 0 -19 29 23 30
43 0 9 6 21 13 25 10 7 53 59 78 96 5 8 74 36 91 37 4 0 13 -9 21 -20z m-539
-5043 c7 -7 11 -17 9 -23 -2 -7 2 -18 9 -25 8 -8 29 -52 47 -99 18 -47 45
-110 59 -140 24 -49 29 -66 34 -107 1 -7 5 -10 8 -8 13 8 51 -95 45 -118 -5
-17 -4 -19 4 -7 10 13 12 13 20 0 5 -8 7 -18 5 -22 -3 -4 0 -8 5 -8 13 0 45
-69 42 -89 -1 -7 2 -10 8 -6 6 3 11 0 11 -9 0 -8 -3 -16 -7 -18 -18 -8 -43
-69 -43 -107 0 -33 7 -47 33 -75 35 -36 88 -53 126 -41 14 4 23 0 32 -17 6
-13 18 -27 25 -31 8 -4 14 -16 14 -26 0 -11 7 -21 15 -24 8 -4 36 -39 62 -79
26 -40 58 -81 71 -91 25 -21 29 -67 10 -109 -16 -34 -63 -43 -90 -16 -10 10
-22 18 -27 18 -16 0 -23 20 -13 33 11 13 10 50 -2 108 -10 47 -61 77 -126 76
-39 -1 -47 3 -58 26 -7 15 -17 27 -21 27 -5 0 -12 7 -15 16 -3 8 -2 12 4 9 6
-3 7 1 4 9 -3 9 -10 14 -14 11 -5 -3 -23 24 -40 60 -17 36 -35 65 -40 65 -5 0
-14 10 -21 21 -9 17 -8 20 3 14 7 -5 4 3 -8 16 -11 13 -31 46 -45 74 -13 27
-30 56 -37 64 -7 7 -11 19 -8 26 2 7 -3 21 -12 31 -27 30 -64 113 -56 125 4 7
3 9 -3 6 -15 -9 -23 16 -12 34 5 8 9 10 10 4 2 -22 17 43 18 80 2 61 -33 100
-97 111 -15 3 -30 8 -33 12 -14 17 -53 128 -54 156 -2 48 4 56 44 57 20 1 47
5 61 9 14 4 26 8 28 9 2 1 9 -5 16 -12z"/>
</g>
</svg>
